<?xml version="1.0" encoding="utf-8" standalone="no"?>
<!DOCTYPE svg PUBLIC "-//W3C//DTD SVG 1.1//EN"
  "http://www.w3.org/Graphics/SVG/1.1/DTD/svg11.dtd">
<svg xmlns:xlink="http://www.w3.org/1999/xlink" width="590.4pt" height="345.6pt" viewBox="0 0 590.4 345.6" xmlns="http://www.w3.org/2000/svg" version="1.1">
 <metadata>
  <rdf:RDF xmlns:dc="http://purl.org/dc/elements/1.1/" xmlns:cc="http://creativecommons.org/ns#" xmlns:rdf="http://www.w3.org/1999/02/22-rdf-syntax-ns#">
   <cc:Work>
    <dc:type rdf:resource="http://purl.org/dc/dcmitype/StillImage"/>
    <dc:date>2026-06-24T19:32:29.235684</dc:date>
    <dc:format>image/svg+xml</dc:format>
    <dc:creator>
     <cc:Agent>
      <dc:title>Matplotlib v3.10.9, https://matplotlib.org/</dc:title>
     </cc:Agent>
    </dc:creator>
   </cc:Work>
  </rdf:RDF>
 </metadata>
 <defs>
  <style type="text/css">*{stroke-linejoin: round; stroke-linecap: butt}</style>
 </defs>
 <g id="figure_1">
  <g id="patch_1">
   <path d="M 0 345.6 
L 590.4 345.6 
L 590.4 0 
L 0 0 
z
" style="fill: #ffffff"/>
  </g>
  <g id="axes_1">
   <g id="patch_2">
    <path d="M 47.72 297.104399 
L 579.6 297.104399 
L 579.6 26.88 
L 47.72 26.88 
z
" style="fill: #ffffff"/>
   </g>
   <g id="patch_3">
    <path d="M 71.896364 297.104399 
L 136.785305 297.104399 
L 136.785305 214.130631 
L 71.896364 214.130631 
z
" clip-path="url(#pb9727aaf2b)" style="fill: #476a6f"/>
   </g>
   <g id="patch_4">
    <path d="M 176.555946 297.104399 
L 241.444888 297.104399 
L 241.444888 152.799056 
L 176.555946 152.799056 
z
" clip-path="url(#pb9727aaf2b)" style="fill: #476a6f"/>
   </g>
   <g id="patch_5">
    <path d="M 281.215529 297.104399 
L 346.104471 297.104399 
L 346.104471 115.428034 
L 281.215529 115.428034 
z
" clip-path="url(#pb9727aaf2b)" style="fill: #476a6f"/>
   </g>
   <g id="patch_6">
    <path d="M 385.875112 297.104399 
L 450.764054 297.104399 
L 450.764054 83.745235 
L 385.875112 83.745235 
z
" clip-path="url(#pb9727aaf2b)" style="fill: #476a6f"/>
   </g>
   <g id="patch_7">
    <path d="M 490.534695 297.104399 
L 555.423636 297.104399 
L 555.423636 102.752886 
L 490.534695 102.752886 
z
" clip-path="url(#pb9727aaf2b)" style="fill: #476a6f"/>
   </g>
   <g id="PathCollection_1">
    <defs>
     <path id="m7dce26270d" d="M 0 2.915476 
C 0.773193 2.915476 1.514823 2.608283 2.061553 2.061553 
C 2.608283 1.514823 2.915476 0.773193 2.915476 0 
C 2.915476 -0.773193 2.608283 -1.514823 2.061553 -2.061553 
C 1.514823 -2.608283 0.773193 -2.915476 0 -2.915476 
C -0.773193 -2.915476 -1.514823 -2.608283 -2.061553 -2.061553 
C -2.608283 -1.514823 -2.915476 -0.773193 -2.915476 0 
C -2.915476 0.773193 -2.608283 1.514823 -2.061553 2.061553 
C -1.514823 2.608283 -0.773193 2.915476 0 2.915476 
z
" style="stroke: #1f77b4; stroke-opacity: 0.82"/>
    </defs>
    <g clip-path="url(#pb9727aaf2b)">
     <use xlink:href="#m7dce26270d" x="94.921472" y="182.774999" style="fill: #1f77b4; fill-opacity: 0.82; stroke: #1f77b4; stroke-opacity: 0.82"/>
     <use xlink:href="#m7dce26270d" x="199.581055" y="124.729728" style="fill: #1f77b4; fill-opacity: 0.82; stroke: #1f77b4; stroke-opacity: 0.82"/>
     <use xlink:href="#m7dce26270d" x="304.240638" y="120.43817" style="fill: #1f77b4; fill-opacity: 0.82; stroke: #1f77b4; stroke-opacity: 0.82"/>
     <use xlink:href="#m7dce26270d" x="408.90022" y="105.812378" style="fill: #1f77b4; fill-opacity: 0.82; stroke: #1f77b4; stroke-opacity: 0.82"/>
     <use xlink:href="#m7dce26270d" x="513.559803" y="114.587853" style="fill: #1f77b4; fill-opacity: 0.82; stroke: #1f77b4; stroke-opacity: 0.82"/>
    </g>
   </g>
   <g id="PathCollection_2">
    <defs>
     <path id="mfae4caf7c1" d="M -2.915476 2.915476 
L 2.915476 2.915476 
L 2.915476 -2.915476 
L -2.915476 -2.915476 
z
" style="stroke: #ff7f0e; stroke-opacity: 0.82"/>
    </defs>
    <g clip-path="url(#pb9727aaf2b)">
     <use xlink:href="#mfae4caf7c1" x="99.631153" y="217.323308" style="fill: #ff7f0e; fill-opacity: 0.82; stroke: #ff7f0e; stroke-opacity: 0.82"/>
     <use xlink:href="#mfae4caf7c1" x="204.290736" y="160.365791" style="fill: #ff7f0e; fill-opacity: 0.82; stroke: #ff7f0e; stroke-opacity: 0.82"/>
     <use xlink:href="#mfae4caf7c1" x="308.950319" y="121.889219" style="fill: #ff7f0e; fill-opacity: 0.82; stroke: #ff7f0e; stroke-opacity: 0.82"/>
     <use xlink:href="#mfae4caf7c1" x="413.609902" y="86.103668" style="fill: #ff7f0e; fill-opacity: 0.82; stroke: #ff7f0e; stroke-opacity: 0.82"/>
     <use xlink:href="#mfae4caf7c1" x="518.269484" y="107.574999" style="fill: #ff7f0e; fill-opacity: 0.82; stroke: #ff7f0e; stroke-opacity: 0.82"/>
    </g>
   </g>
   <g id="PathCollection_3">
    <defs>
     <path id="m2f924fa8c9" d="M 0 -2.915476 
L -2.915476 2.915476 
L 2.915476 2.915476 
z
" style="stroke: #2ca02c; stroke-opacity: 0.82"/>
    </defs>
    <g clip-path="url(#pb9727aaf2b)">
     <use xlink:href="#m2f924fa8c9" x="104.340834" y="214.748731" style="fill: #2ca02c; fill-opacity: 0.82; stroke: #2ca02c; stroke-opacity: 0.82"/>
     <use xlink:href="#m2f924fa8c9" x="209.000417" y="155.851304" style="fill: #2ca02c; fill-opacity: 0.82; stroke: #2ca02c; stroke-opacity: 0.82"/>
     <use xlink:href="#m2f924fa8c9" x="313.66" y="118.638504" style="fill: #2ca02c; fill-opacity: 0.82; stroke: #2ca02c; stroke-opacity: 0.82"/>
     <use xlink:href="#m2f924fa8c9" x="418.319583" y="95.694845" style="fill: #2ca02c; fill-opacity: 0.82; stroke: #2ca02c; stroke-opacity: 0.82"/>
     <use xlink:href="#m2f924fa8c9" x="522.979166" y="109.46104" style="fill: #2ca02c; fill-opacity: 0.82; stroke: #2ca02c; stroke-opacity: 0.82"/>
    </g>
   </g>
   <g id="PathCollection_4">
    <defs>
     <path id="mdeaa6e7843" d="M 0 4.123106 
L 4.123106 0 
L 0 -4.123106 
L -4.123106 0 
z
" style="stroke: #d62728; stroke-opacity: 0.82"/>
    </defs>
    <g clip-path="url(#pb9727aaf2b)">
     <use xlink:href="#mdeaa6e7843" x="109.050516" y="267.897697" style="fill: #d62728; fill-opacity: 0.82; stroke: #d62728; stroke-opacity: 0.82"/>
     <use xlink:href="#mdeaa6e7843" x="213.710098" y="189.931243" style="fill: #d62728; fill-opacity: 0.82; stroke: #d62728; stroke-opacity: 0.82"/>
     <use xlink:href="#mdeaa6e7843" x="318.369681" y="137.212355" style="fill: #d62728; fill-opacity: 0.82; stroke: #d62728; stroke-opacity: 0.82"/>
     <use xlink:href="#mdeaa6e7843" x="423.029264" y="91.367454" style="fill: #d62728; fill-opacity: 0.82; stroke: #d62728; stroke-opacity: 0.82"/>
     <use xlink:href="#mdeaa6e7843" x="527.688847" y="118.859712" style="fill: #d62728; fill-opacity: 0.82; stroke: #d62728; stroke-opacity: 0.82"/>
    </g>
   </g>
   <g id="PathCollection_5">
    <defs>
     <path id="m64c8c02c47" d="M -0.971825 2.915476 
L 0.971825 2.915476 
L 0.971825 0.971825 
L 2.915476 0.971825 
L 2.915476 -0.971825 
L 0.971825 -0.971825 
L 0.971825 -2.915476 
L -0.971825 -2.915476 
L -0.971825 -0.971825 
L -2.915476 -0.971825 
L -2.915476 0.971825 
L -0.971825 0.971825 
z
" style="stroke: #9467bd; stroke-opacity: 0.82"/>
    </defs>
    <g clip-path="url(#pb9727aaf2b)">
     <use xlink:href="#m64c8c02c47" x="113.760197" y="187.908422" style="fill: #9467bd; fill-opacity: 0.82; stroke: #9467bd; stroke-opacity: 0.82"/>
     <use xlink:href="#m64c8c02c47" x="218.41978" y="133.117217" style="fill: #9467bd; fill-opacity: 0.82; stroke: #9467bd; stroke-opacity: 0.82"/>
     <use xlink:href="#m64c8c02c47" x="323.079362" y="78.990967" style="fill: #9467bd; fill-opacity: 0.82; stroke: #9467bd; stroke-opacity: 0.82"/>
     <use xlink:href="#m64c8c02c47" x="427.738945" y="39.747829" style="fill: #9467bd; fill-opacity: 0.82; stroke: #9467bd; stroke-opacity: 0.82"/>
     <use xlink:href="#m64c8c02c47" x="532.398528" y="63.293712" style="fill: #9467bd; fill-opacity: 0.82; stroke: #9467bd; stroke-opacity: 0.82"/>
    </g>
   </g>
   <g id="matplotlib.axis_1">
    <g id="xtick_1">
     <g id="line2d_1">
      <defs>
       <path id="m7437b158a1" d="M 0 0 
L 0 3.5 
" style="stroke: #000000; stroke-width: 0.8"/>
      </defs>
      <g>
       <use xlink:href="#m7437b158a1" x="104.340834" y="297.104399" style="stroke: #000000; stroke-width: 0.8"/>
      </g>
     </g>
     <g id="text_1">
      <!-- High -->
      <g transform="translate(81.838736 318.433505) rotate(-18) scale(0.1 -0.1)">
       <defs>
        <path id="DejaVuSans-48" d="M 628 4666 
L 1259 4666 
L 1259 2753 
L 3553 2753 
L 3553 4666 
L 4184 4666 
L 4184 0 
L 3553 0 
L 3553 2222 
L 1259 2222 
L 1259 0 
L 628 0 
L 628 4666 
z
" transform="scale(0.015625)"/>
        <path id="DejaVuSans-69" d="M 603 3500 
L 1178 3500 
L 1178 0 
L 603 0 
L 603 3500 
z
M 603 4863 
L 1178 4863 
L 1178 4134 
L 603 4134 
L 603 4863 
z
" transform="scale(0.015625)"/>
        <path id="DejaVuSans-67" d="M 2906 1791 
Q 2906 2416 2648 2759 
Q 2391 3103 1925 3103 
Q 1463 3103 1205 2759 
Q 947 2416 947 1791 
Q 947 1169 1205 825 
Q 1463 481 1925 481 
Q 2391 481 2648 825 
Q 2906 1169 2906 1791 
z
M 3481 434 
Q 3481 -459 3084 -895 
Q 2688 -1331 1869 -1331 
Q 1566 -1331 1297 -1286 
Q 1028 -1241 775 -1147 
L 775 -588 
Q 1028 -725 1275 -790 
Q 1522 -856 1778 -856 
Q 2344 -856 2625 -561 
Q 2906 -266 2906 331 
L 2906 616 
Q 2728 306 2450 153 
Q 2172 0 1784 0 
Q 1141 0 747 490 
Q 353 981 353 1791 
Q 353 2603 747 3093 
Q 1141 3584 1784 3584 
Q 2172 3584 2450 3431 
Q 2728 3278 2906 2969 
L 2906 3500 
L 3481 3500 
L 3481 434 
z
" transform="scale(0.015625)"/>
        <path id="DejaVuSans-68" d="M 3513 2113 
L 3513 0 
L 2938 0 
L 2938 2094 
Q 2938 2591 2744 2837 
Q 2550 3084 2163 3084 
Q 1697 3084 1428 2787 
Q 1159 2491 1159 1978 
L 1159 0 
L 581 0 
L 581 4863 
L 1159 4863 
L 1159 2956 
Q 1366 3272 1645 3428 
Q 1925 3584 2291 3584 
Q 2894 3584 3203 3211 
Q 3513 2838 3513 2113 
z
" transform="scale(0.015625)"/>
       </defs>
       <use xlink:href="#DejaVuSans-48"/>
       <use xlink:href="#DejaVuSans-69" transform="translate(75.195312 0)"/>
       <use xlink:href="#DejaVuSans-67" transform="translate(102.978516 0)"/>
       <use xlink:href="#DejaVuSans-68" transform="translate(166.455078 0)"/>
      </g>
     </g>
    </g>
    <g id="xtick_2">
     <g id="line2d_2">
      <g>
       <use xlink:href="#m7437b158a1" x="209.000417" y="297.104399" style="stroke: #000000; stroke-width: 0.8"/>
      </g>
     </g>
     <g id="text_2">
      <!-- Moderate -->
      <g transform="translate(163.124619 326.028081) rotate(-18) scale(0.1 -0.1)">
       <defs>
        <path id="DejaVuSans-4d" d="M 628 4666 
L 1569 4666 
L 2759 1491 
L 3956 4666 
L 4897 4666 
L 4897 0 
L 4281 0 
L 4281 4097 
L 3078 897 
L 2444 897 
L 1241 4097 
L 1241 0 
L 628 0 
L 628 4666 
z
" transform="scale(0.015625)"/>
        <path id="DejaVuSans-6f" d="M 1959 3097 
Q 1497 3097 1228 2736 
Q 959 2375 959 1747 
Q 959 1119 1226 758 
Q 1494 397 1959 397 
Q 2419 397 2687 759 
Q 2956 1122 2956 1747 
Q 2956 2369 2687 2733 
Q 2419 3097 1959 3097 
z
M 1959 3584 
Q 2709 3584 3137 3096 
Q 3566 2609 3566 1747 
Q 3566 888 3137 398 
Q 2709 -91 1959 -91 
Q 1206 -91 779 398 
Q 353 888 353 1747 
Q 353 2609 779 3096 
Q 1206 3584 1959 3584 
z
" transform="scale(0.015625)"/>
        <path id="DejaVuSans-64" d="M 2906 2969 
L 2906 4863 
L 3481 4863 
L 3481 0 
L 2906 0 
L 2906 525 
Q 2725 213 2448 61 
Q 2172 -91 1784 -91 
Q 1150 -91 751 415 
Q 353 922 353 1747 
Q 353 2572 751 3078 
Q 1150 3584 1784 3584 
Q 2172 3584 2448 3432 
Q 2725 3281 2906 2969 
z
M 947 1747 
Q 947 1113 1208 752 
Q 1469 391 1925 391 
Q 2381 391 2643 752 
Q 2906 1113 2906 1747 
Q 2906 2381 2643 2742 
Q 2381 3103 1925 3103 
Q 1469 3103 1208 2742 
Q 947 2381 947 1747 
z
" transform="scale(0.015625)"/>
        <path id="DejaVuSans-65" d="M 3597 1894 
L 3597 1613 
L 953 1613 
Q 991 1019 1311 708 
Q 1631 397 2203 397 
Q 2534 397 2845 478 
Q 3156 559 3463 722 
L 3463 178 
Q 3153 47 2828 -22 
Q 2503 -91 2169 -91 
Q 1331 -91 842 396 
Q 353 884 353 1716 
Q 353 2575 817 3079 
Q 1281 3584 2069 3584 
Q 2775 3584 3186 3129 
Q 3597 2675 3597 1894 
z
M 3022 2063 
Q 3016 2534 2758 2815 
Q 2500 3097 2075 3097 
Q 1594 3097 1305 2825 
Q 1016 2553 972 2059 
L 3022 2063 
z
" transform="scale(0.015625)"/>
        <path id="DejaVuSans-72" d="M 2631 2963 
Q 2534 3019 2420 3045 
Q 2306 3072 2169 3072 
Q 1681 3072 1420 2755 
Q 1159 2438 1159 1844 
L 1159 0 
L 581 0 
L 581 3500 
L 1159 3500 
L 1159 2956 
Q 1341 3275 1631 3429 
Q 1922 3584 2338 3584 
Q 2397 3584 2469 3576 
Q 2541 3569 2628 3553 
L 2631 2963 
z
" transform="scale(0.015625)"/>
        <path id="DejaVuSans-61" d="M 2194 1759 
Q 1497 1759 1228 1600 
Q 959 1441 959 1056 
Q 959 750 1161 570 
Q 1363 391 1709 391 
Q 2188 391 2477 730 
Q 2766 1069 2766 1631 
L 2766 1759 
L 2194 1759 
z
M 3341 1997 
L 3341 0 
L 2766 0 
L 2766 531 
Q 2569 213 2275 61 
Q 1981 -91 1556 -91 
Q 1019 -91 701 211 
Q 384 513 384 1019 
Q 384 1609 779 1909 
Q 1175 2209 1959 2209 
L 2766 2209 
L 2766 2266 
Q 2766 2663 2505 2880 
Q 2244 3097 1772 3097 
Q 1472 3097 1187 3025 
Q 903 2953 641 2809 
L 641 3341 
Q 956 3463 1253 3523 
Q 1550 3584 1831 3584 
Q 2591 3584 2966 3190 
Q 3341 2797 3341 1997 
z
" transform="scale(0.015625)"/>
        <path id="DejaVuSans-74" d="M 1172 4494 
L 1172 3500 
L 2356 3500 
L 2356 3053 
L 1172 3053 
L 1172 1153 
Q 1172 725 1289 603 
Q 1406 481 1766 481 
L 2356 481 
L 2356 0 
L 1766 0 
Q 1100 0 847 248 
Q 594 497 594 1153 
L 594 3053 
L 172 3053 
L 172 3500 
L 594 3500 
L 594 4494 
L 1172 4494 
z
" transform="scale(0.015625)"/>
       </defs>
       <use xlink:href="#DejaVuSans-4d"/>
       <use xlink:href="#DejaVuSans-6f" transform="translate(86.279297 0)"/>
       <use xlink:href="#DejaVuSans-64" transform="translate(147.460938 0)"/>
       <use xlink:href="#DejaVuSans-65" transform="translate(210.9375 0)"/>
       <use xlink:href="#DejaVuSans-72" transform="translate(272.460938 0)"/>
       <use xlink:href="#DejaVuSans-61" transform="translate(313.574219 0)"/>
       <use xlink:href="#DejaVuSans-74" transform="translate(374.853516 0)"/>
       <use xlink:href="#DejaVuSans-65" transform="translate(414.0625 0)"/>
      </g>
     </g>
    </g>
    <g id="xtick_3">
     <g id="line2d_3">
      <g>
       <use xlink:href="#m7437b158a1" x="313.66" y="297.104399" style="stroke: #000000; stroke-width: 0.8"/>
      </g>
     </g>
     <g id="text_3">
      <!-- Low -->
      <g transform="translate(294.287472 317.416646) rotate(-18) scale(0.1 -0.1)">
       <defs>
        <path id="DejaVuSans-4c" d="M 628 4666 
L 1259 4666 
L 1259 531 
L 3531 531 
L 3531 0 
L 628 0 
L 628 4666 
z
" transform="scale(0.015625)"/>
        <path id="DejaVuSans-77" d="M 269 3500 
L 844 3500 
L 1563 769 
L 2278 3500 
L 2956 3500 
L 3675 769 
L 4391 3500 
L 4966 3500 
L 4050 0 
L 3372 0 
L 2619 2869 
L 1863 0 
L 1184 0 
L 269 3500 
z
" transform="scale(0.015625)"/>
       </defs>
       <use xlink:href="#DejaVuSans-4c"/>
       <use xlink:href="#DejaVuSans-6f" transform="translate(53.962891 0)"/>
       <use xlink:href="#DejaVuSans-77" transform="translate(115.144531 0)"/>
      </g>
     </g>
    </g>
    <g id="xtick_4">
     <g id="line2d_4">
      <g>
       <use xlink:href="#m7437b158a1" x="418.319583" y="297.104399" style="stroke: #000000; stroke-width: 0.8"/>
      </g>
     </g>
     <g id="text_4">
      <!-- Diffuse -->
      <g transform="translate(384.181902 322.214135) rotate(-18) scale(0.1 -0.1)">
       <defs>
        <path id="DejaVuSans-44" d="M 1259 4147 
L 1259 519 
L 2022 519 
Q 2988 519 3436 956 
Q 3884 1394 3884 2338 
Q 3884 3275 3436 3711 
Q 2988 4147 2022 4147 
L 1259 4147 
z
M 628 4666 
L 1925 4666 
Q 3281 4666 3915 4102 
Q 4550 3538 4550 2338 
Q 4550 1131 3912 565 
Q 3275 0 1925 0 
L 628 0 
L 628 4666 
z
" transform="scale(0.015625)"/>
        <path id="DejaVuSans-66" d="M 2375 4863 
L 2375 4384 
L 1825 4384 
Q 1516 4384 1395 4259 
Q 1275 4134 1275 3809 
L 1275 3500 
L 2222 3500 
L 2222 3053 
L 1275 3053 
L 1275 0 
L 697 0 
L 697 3053 
L 147 3053 
L 147 3500 
L 697 3500 
L 697 3744 
Q 697 4328 969 4595 
Q 1241 4863 1831 4863 
L 2375 4863 
z
" transform="scale(0.015625)"/>
        <path id="DejaVuSans-75" d="M 544 1381 
L 544 3500 
L 1119 3500 
L 1119 1403 
Q 1119 906 1312 657 
Q 1506 409 1894 409 
Q 2359 409 2629 706 
Q 2900 1003 2900 1516 
L 2900 3500 
L 3475 3500 
L 3475 0 
L 2900 0 
L 2900 538 
Q 2691 219 2414 64 
Q 2138 -91 1772 -91 
Q 1169 -91 856 284 
Q 544 659 544 1381 
z
M 1991 3584 
L 1991 3584 
z
" transform="scale(0.015625)"/>
        <path id="DejaVuSans-73" d="M 2834 3397 
L 2834 2853 
Q 2591 2978 2328 3040 
Q 2066 3103 1784 3103 
Q 1356 3103 1142 2972 
Q 928 2841 928 2578 
Q 928 2378 1081 2264 
Q 1234 2150 1697 2047 
L 1894 2003 
Q 2506 1872 2764 1633 
Q 3022 1394 3022 966 
Q 3022 478 2636 193 
Q 2250 -91 1575 -91 
Q 1294 -91 989 -36 
Q 684 19 347 128 
L 347 722 
Q 666 556 975 473 
Q 1284 391 1588 391 
Q 1994 391 2212 530 
Q 2431 669 2431 922 
Q 2431 1156 2273 1281 
Q 2116 1406 1581 1522 
L 1381 1569 
Q 847 1681 609 1914 
Q 372 2147 372 2553 
Q 372 3047 722 3315 
Q 1072 3584 1716 3584 
Q 2034 3584 2315 3537 
Q 2597 3491 2834 3397 
z
" transform="scale(0.015625)"/>
       </defs>
       <use xlink:href="#DejaVuSans-44"/>
       <use xlink:href="#DejaVuSans-69" transform="translate(77.001953 0)"/>
       <use xlink:href="#DejaVuSans-66" transform="translate(104.785156 0)"/>
       <use xlink:href="#DejaVuSans-66" transform="translate(139.990234 0)"/>
       <use xlink:href="#DejaVuSans-75" transform="translate(175.195312 0)"/>
       <use xlink:href="#DejaVuSans-73" transform="translate(238.574219 0)"/>
       <use xlink:href="#DejaVuSans-65" transform="translate(290.673828 0)"/>
      </g>
     </g>
    </g>
    <g id="xtick_5">
     <g id="line2d_5">
      <g>
       <use xlink:href="#m7437b158a1" x="522.979166" y="297.104399" style="stroke: #000000; stroke-width: 0.8"/>
      </g>
     </g>
     <g id="text_5">
      <!-- Low + diffuse -->
      <g transform="translate(457.382319 332.435838) rotate(-18) scale(0.1 -0.1)">
       <defs>
        <path id="DejaVuSans-20" transform="scale(0.015625)"/>
        <path id="DejaVuSans-2b" d="M 2944 4013 
L 2944 2272 
L 4684 2272 
L 4684 1741 
L 2944 1741 
L 2944 0 
L 2419 0 
L 2419 1741 
L 678 1741 
L 678 2272 
L 2419 2272 
L 2419 4013 
L 2944 4013 
z
" transform="scale(0.015625)"/>
       </defs>
       <use xlink:href="#DejaVuSans-4c"/>
       <use xlink:href="#DejaVuSans-6f" transform="translate(53.962891 0)"/>
       <use xlink:href="#DejaVuSans-77" transform="translate(115.144531 0)"/>
       <use xlink:href="#DejaVuSans-20" transform="translate(196.931641 0)"/>
       <use xlink:href="#DejaVuSans-2b" transform="translate(228.71875 0)"/>
       <use xlink:href="#DejaVuSans-20" transform="translate(312.507812 0)"/>
       <use xlink:href="#DejaVuSans-64" transform="translate(344.294922 0)"/>
       <use xlink:href="#DejaVuSans-69" transform="translate(407.771484 0)"/>
       <use xlink:href="#DejaVuSans-66" transform="translate(435.554688 0)"/>
       <use xlink:href="#DejaVuSans-66" transform="translate(470.759766 0)"/>
       <use xlink:href="#DejaVuSans-75" transform="translate(505.964844 0)"/>
       <use xlink:href="#DejaVuSans-73" transform="translate(569.34375 0)"/>
       <use xlink:href="#DejaVuSans-65" transform="translate(621.443359 0)"/>
      </g>
     </g>
    </g>
   </g>
   <g id="matplotlib.axis_2">
    <g id="ytick_1">
     <g id="line2d_6">
      <path d="M 47.72 297.104399 
L 579.6 297.104399 
" clip-path="url(#pb9727aaf2b)" style="fill: none; stroke: #dddddd; stroke-width: 0.8; stroke-linecap: square"/>
     </g>
     <g id="line2d_7">
      <defs>
       <path id="mf24259e0b8" d="M 0 0 
L -3.5 0 
" style="stroke: #000000; stroke-width: 0.8"/>
      </defs>
      <g>
       <use xlink:href="#mf24259e0b8" x="47.72" y="297.104399" style="stroke: #000000; stroke-width: 0.8"/>
      </g>
     </g>
     <g id="text_6">
      <!-- 0.0 -->
      <g transform="translate(24.816875 300.903618) scale(0.1 -0.1)">
       <defs>
        <path id="DejaVuSans-30" d="M 2034 4250 
Q 1547 4250 1301 3770 
Q 1056 3291 1056 2328 
Q 1056 1369 1301 889 
Q 1547 409 2034 409 
Q 2525 409 2770 889 
Q 3016 1369 3016 2328 
Q 3016 3291 2770 3770 
Q 2525 4250 2034 4250 
z
M 2034 4750 
Q 2819 4750 3233 4129 
Q 3647 3509 3647 2328 
Q 3647 1150 3233 529 
Q 2819 -91 2034 -91 
Q 1250 -91 836 529 
Q 422 1150 422 2328 
Q 422 3509 836 4129 
Q 1250 4750 2034 4750 
z
" transform="scale(0.015625)"/>
        <path id="DejaVuSans-2e" d="M 684 794 
L 1344 794 
L 1344 0 
L 684 0 
L 684 794 
z
" transform="scale(0.015625)"/>
       </defs>
       <use xlink:href="#DejaVuSans-30"/>
       <use xlink:href="#DejaVuSans-2e" transform="translate(63.623047 0)"/>
       <use xlink:href="#DejaVuSans-30" transform="translate(95.410156 0)"/>
      </g>
     </g>
    </g>
    <g id="ytick_2">
     <g id="line2d_8">
      <path d="M 47.72 248.125962 
L 579.6 248.125962 
" clip-path="url(#pb9727aaf2b)" style="fill: none; stroke: #dddddd; stroke-width: 0.8; stroke-linecap: square"/>
     </g>
     <g id="line2d_9">
      <g>
       <use xlink:href="#mf24259e0b8" x="47.72" y="248.125962" style="stroke: #000000; stroke-width: 0.8"/>
      </g>
     </g>
     <g id="text_7">
      <!-- 0.1 -->
      <g transform="translate(24.816875 251.92518) scale(0.1 -0.1)">
       <defs>
        <path id="DejaVuSans-31" d="M 794 531 
L 1825 531 
L 1825 4091 
L 703 3866 
L 703 4441 
L 1819 4666 
L 2450 4666 
L 2450 531 
L 3481 531 
L 3481 0 
L 794 0 
L 794 531 
z
" transform="scale(0.015625)"/>
       </defs>
       <use xlink:href="#DejaVuSans-30"/>
       <use xlink:href="#DejaVuSans-2e" transform="translate(63.623047 0)"/>
       <use xlink:href="#DejaVuSans-31" transform="translate(95.410156 0)"/>
      </g>
     </g>
    </g>
    <g id="ytick_3">
     <g id="line2d_10">
      <path d="M 47.72 199.147524 
L 579.6 199.147524 
" clip-path="url(#pb9727aaf2b)" style="fill: none; stroke: #dddddd; stroke-width: 0.8; stroke-linecap: square"/>
     </g>
     <g id="line2d_11">
      <g>
       <use xlink:href="#mf24259e0b8" x="47.72" y="199.147524" style="stroke: #000000; stroke-width: 0.8"/>
      </g>
     </g>
     <g id="text_8">
      <!-- 0.2 -->
      <g transform="translate(24.816875 202.946743) scale(0.1 -0.1)">
       <defs>
        <path id="DejaVuSans-32" d="M 1228 531 
L 3431 531 
L 3431 0 
L 469 0 
L 469 531 
Q 828 903 1448 1529 
Q 2069 2156 2228 2338 
Q 2531 2678 2651 2914 
Q 2772 3150 2772 3378 
Q 2772 3750 2511 3984 
Q 2250 4219 1831 4219 
Q 1534 4219 1204 4116 
Q 875 4013 500 3803 
L 500 4441 
Q 881 4594 1212 4672 
Q 1544 4750 1819 4750 
Q 2544 4750 2975 4387 
Q 3406 4025 3406 3419 
Q 3406 3131 3298 2873 
Q 3191 2616 2906 2266 
Q 2828 2175 2409 1742 
Q 1991 1309 1228 531 
z
" transform="scale(0.015625)"/>
       </defs>
       <use xlink:href="#DejaVuSans-30"/>
       <use xlink:href="#DejaVuSans-2e" transform="translate(63.623047 0)"/>
       <use xlink:href="#DejaVuSans-32" transform="translate(95.410156 0)"/>
      </g>
     </g>
    </g>
    <g id="ytick_4">
     <g id="line2d_12">
      <path d="M 47.72 150.169086 
L 579.6 150.169086 
" clip-path="url(#pb9727aaf2b)" style="fill: none; stroke: #dddddd; stroke-width: 0.8; stroke-linecap: square"/>
     </g>
     <g id="line2d_13">
      <g>
       <use xlink:href="#mf24259e0b8" x="47.72" y="150.169086" style="stroke: #000000; stroke-width: 0.8"/>
      </g>
     </g>
     <g id="text_9">
      <!-- 0.3 -->
      <g transform="translate(24.816875 153.968305) scale(0.1 -0.1)">
       <defs>
        <path id="DejaVuSans-33" d="M 2597 2516 
Q 3050 2419 3304 2112 
Q 3559 1806 3559 1356 
Q 3559 666 3084 287 
Q 2609 -91 1734 -91 
Q 1441 -91 1130 -33 
Q 819 25 488 141 
L 488 750 
Q 750 597 1062 519 
Q 1375 441 1716 441 
Q 2309 441 2620 675 
Q 2931 909 2931 1356 
Q 2931 1769 2642 2001 
Q 2353 2234 1838 2234 
L 1294 2234 
L 1294 2753 
L 1863 2753 
Q 2328 2753 2575 2939 
Q 2822 3125 2822 3475 
Q 2822 3834 2567 4026 
Q 2313 4219 1838 4219 
Q 1578 4219 1281 4162 
Q 984 4106 628 3988 
L 628 4550 
Q 988 4650 1302 4700 
Q 1616 4750 1894 4750 
Q 2613 4750 3031 4423 
Q 3450 4097 3450 3541 
Q 3450 3153 3228 2886 
Q 3006 2619 2597 2516 
z
" transform="scale(0.015625)"/>
       </defs>
       <use xlink:href="#DejaVuSans-30"/>
       <use xlink:href="#DejaVuSans-2e" transform="translate(63.623047 0)"/>
       <use xlink:href="#DejaVuSans-33" transform="translate(95.410156 0)"/>
      </g>
     </g>
    </g>
    <g id="ytick_5">
     <g id="line2d_14">
      <path d="M 47.72 101.190648 
L 579.6 101.190648 
" clip-path="url(#pb9727aaf2b)" style="fill: none; stroke: #dddddd; stroke-width: 0.8; stroke-linecap: square"/>
     </g>
     <g id="line2d_15">
      <g>
       <use xlink:href="#mf24259e0b8" x="47.72" y="101.190648" style="stroke: #000000; stroke-width: 0.8"/>
      </g>
     </g>
     <g id="text_10">
      <!-- 0.4 -->
      <g transform="translate(24.816875 104.989867) scale(0.1 -0.1)">
       <defs>
        <path id="DejaVuSans-34" d="M 2419 4116 
L 825 1625 
L 2419 1625 
L 2419 4116 
z
M 2253 4666 
L 3047 4666 
L 3047 1625 
L 3713 1625 
L 3713 1100 
L 3047 1100 
L 3047 0 
L 2419 0 
L 2419 1100 
L 313 1100 
L 313 1709 
L 2253 4666 
z
" transform="scale(0.015625)"/>
       </defs>
       <use xlink:href="#DejaVuSans-30"/>
       <use xlink:href="#DejaVuSans-2e" transform="translate(63.623047 0)"/>
       <use xlink:href="#DejaVuSans-34" transform="translate(95.410156 0)"/>
      </g>
     </g>
    </g>
    <g id="ytick_6">
     <g id="line2d_16">
      <path d="M 47.72 52.212211 
L 579.6 52.212211 
" clip-path="url(#pb9727aaf2b)" style="fill: none; stroke: #dddddd; stroke-width: 0.8; stroke-linecap: square"/>
     </g>
     <g id="line2d_17">
      <g>
       <use xlink:href="#mf24259e0b8" x="47.72" y="52.212211" style="stroke: #000000; stroke-width: 0.8"/>
      </g>
     </g>
     <g id="text_11">
      <!-- 0.5 -->
      <g transform="translate(24.816875 56.011429) scale(0.1 -0.1)">
       <defs>
        <path id="DejaVuSans-35" d="M 691 4666 
L 3169 4666 
L 3169 4134 
L 1269 4134 
L 1269 2991 
Q 1406 3038 1543 3061 
Q 1681 3084 1819 3084 
Q 2600 3084 3056 2656 
Q 3513 2228 3513 1497 
Q 3513 744 3044 326 
Q 2575 -91 1722 -91 
Q 1428 -91 1123 -41 
Q 819 9 494 109 
L 494 744 
Q 775 591 1075 516 
Q 1375 441 1709 441 
Q 2250 441 2565 725 
Q 2881 1009 2881 1497 
Q 2881 1984 2565 2268 
Q 2250 2553 1709 2553 
Q 1456 2553 1204 2497 
Q 953 2441 691 2322 
L 691 4666 
z
" transform="scale(0.015625)"/>
       </defs>
       <use xlink:href="#DejaVuSans-30"/>
       <use xlink:href="#DejaVuSans-2e" transform="translate(63.623047 0)"/>
       <use xlink:href="#DejaVuSans-35" transform="translate(95.410156 0)"/>
      </g>
     </g>
    </g>
    <g id="text_12">
     <!-- Mean agreement surplus -->
     <g transform="translate(18.737187 224.369543) rotate(-90) scale(0.1 -0.1)">
      <defs>
       <path id="DejaVuSans-6e" d="M 3513 2113 
L 3513 0 
L 2938 0 
L 2938 2094 
Q 2938 2591 2744 2837 
Q 2550 3084 2163 3084 
Q 1697 3084 1428 2787 
Q 1159 2491 1159 1978 
L 1159 0 
L 581 0 
L 581 3500 
L 1159 3500 
L 1159 2956 
Q 1366 3272 1645 3428 
Q 1925 3584 2291 3584 
Q 2894 3584 3203 3211 
Q 3513 2838 3513 2113 
z
" transform="scale(0.015625)"/>
       <path id="DejaVuSans-6d" d="M 3328 2828 
Q 3544 3216 3844 3400 
Q 4144 3584 4550 3584 
Q 5097 3584 5394 3201 
Q 5691 2819 5691 2113 
L 5691 0 
L 5113 0 
L 5113 2094 
Q 5113 2597 4934 2840 
Q 4756 3084 4391 3084 
Q 3944 3084 3684 2787 
Q 3425 2491 3425 1978 
L 3425 0 
L 2847 0 
L 2847 2094 
Q 2847 2600 2669 2842 
Q 2491 3084 2119 3084 
Q 1678 3084 1418 2786 
Q 1159 2488 1159 1978 
L 1159 0 
L 581 0 
L 581 3500 
L 1159 3500 
L 1159 2956 
Q 1356 3278 1631 3431 
Q 1906 3584 2284 3584 
Q 2666 3584 2933 3390 
Q 3200 3197 3328 2828 
z
" transform="scale(0.015625)"/>
       <path id="DejaVuSans-70" d="M 1159 525 
L 1159 -1331 
L 581 -1331 
L 581 3500 
L 1159 3500 
L 1159 2969 
Q 1341 3281 1617 3432 
Q 1894 3584 2278 3584 
Q 2916 3584 3314 3078 
Q 3713 2572 3713 1747 
Q 3713 922 3314 415 
Q 2916 -91 2278 -91 
Q 1894 -91 1617 61 
Q 1341 213 1159 525 
z
M 3116 1747 
Q 3116 2381 2855 2742 
Q 2594 3103 2138 3103 
Q 1681 3103 1420 2742 
Q 1159 2381 1159 1747 
Q 1159 1113 1420 752 
Q 1681 391 2138 391 
Q 2594 391 2855 752 
Q 3116 1113 3116 1747 
z
" transform="scale(0.015625)"/>
       <path id="DejaVuSans-6c" d="M 603 4863 
L 1178 4863 
L 1178 0 
L 603 0 
L 603 4863 
z
" transform="scale(0.015625)"/>
      </defs>
      <use xlink:href="#DejaVuSans-4d"/>
      <use xlink:href="#DejaVuSans-65" transform="translate(86.279297 0)"/>
      <use xlink:href="#DejaVuSans-61" transform="translate(147.802734 0)"/>
      <use xlink:href="#DejaVuSans-6e" transform="translate(209.082031 0)"/>
      <use xlink:href="#DejaVuSans-20" transform="translate(272.460938 0)"/>
      <use xlink:href="#DejaVuSans-61" transform="translate(304.248047 0)"/>
      <use xlink:href="#DejaVuSans-67" transform="translate(365.527344 0)"/>
      <use xlink:href="#DejaVuSans-72" transform="translate(429.003906 0)"/>
      <use xlink:href="#DejaVuSans-65" transform="translate(467.867188 0)"/>
      <use xlink:href="#DejaVuSans-65" transform="translate(529.390625 0)"/>
      <use xlink:href="#DejaVuSans-6d" transform="translate(590.914062 0)"/>
      <use xlink:href="#DejaVuSans-65" transform="translate(688.326172 0)"/>
      <use xlink:href="#DejaVuSans-6e" transform="translate(749.849609 0)"/>
      <use xlink:href="#DejaVuSans-74" transform="translate(813.228516 0)"/>
      <use xlink:href="#DejaVuSans-20" transform="translate(852.4375 0)"/>
      <use xlink:href="#DejaVuSans-73" transform="translate(884.224609 0)"/>
      <use xlink:href="#DejaVuSans-75" transform="translate(936.324219 0)"/>
      <use xlink:href="#DejaVuSans-72" transform="translate(999.703125 0)"/>
      <use xlink:href="#DejaVuSans-70" transform="translate(1040.816406 0)"/>
      <use xlink:href="#DejaVuSans-6c" transform="translate(1104.292969 0)"/>
      <use xlink:href="#DejaVuSans-75" transform="translate(1132.076172 0)"/>
      <use xlink:href="#DejaVuSans-73" transform="translate(1195.455078 0)"/>
     </g>
    </g>
   </g>
   <g id="line2d_18">
    <path d="M 47.72 297.104399 
L 579.6 297.104399 
" clip-path="url(#pb9727aaf2b)" style="fill: none; stroke: #222222; stroke-width: 0.8; stroke-linecap: square"/>
   </g>
   <g id="patch_8">
    <path d="M 47.72 297.104399 
L 47.72 26.88 
" style="fill: none; stroke: #000000; stroke-width: 0.8; stroke-linejoin: miter; stroke-linecap: square"/>
   </g>
   <g id="patch_9">
    <path d="M 47.72 297.104399 
L 579.6 297.104399 
" style="fill: none; stroke: #000000; stroke-width: 0.8; stroke-linejoin: miter; stroke-linecap: square"/>
   </g>
   <g id="text_13">
    <!-- Agreement Surplus by Disagreement Bin -->
    <g transform="translate(190.979688 20.88) scale(0.12 -0.12)">
     <defs>
      <path id="DejaVuSans-41" d="M 2188 4044 
L 1331 1722 
L 3047 1722 
L 2188 4044 
z
M 1831 4666 
L 2547 4666 
L 4325 0 
L 3669 0 
L 3244 1197 
L 1141 1197 
L 716 0 
L 50 0 
L 1831 4666 
z
" transform="scale(0.015625)"/>
      <path id="DejaVuSans-53" d="M 3425 4513 
L 3425 3897 
Q 3066 4069 2747 4153 
Q 2428 4238 2131 4238 
Q 1616 4238 1336 4038 
Q 1056 3838 1056 3469 
Q 1056 3159 1242 3001 
Q 1428 2844 1947 2747 
L 2328 2669 
Q 3034 2534 3370 2195 
Q 3706 1856 3706 1288 
Q 3706 609 3251 259 
Q 2797 -91 1919 -91 
Q 1588 -91 1214 -16 
Q 841 59 441 206 
L 441 856 
Q 825 641 1194 531 
Q 1563 422 1919 422 
Q 2459 422 2753 634 
Q 3047 847 3047 1241 
Q 3047 1584 2836 1778 
Q 2625 1972 2144 2069 
L 1759 2144 
Q 1053 2284 737 2584 
Q 422 2884 422 3419 
Q 422 4038 858 4394 
Q 1294 4750 2059 4750 
Q 2388 4750 2728 4690 
Q 3069 4631 3425 4513 
z
" transform="scale(0.015625)"/>
      <path id="DejaVuSans-62" d="M 3116 1747 
Q 3116 2381 2855 2742 
Q 2594 3103 2138 3103 
Q 1681 3103 1420 2742 
Q 1159 2381 1159 1747 
Q 1159 1113 1420 752 
Q 1681 391 2138 391 
Q 2594 391 2855 752 
Q 3116 1113 3116 1747 
z
M 1159 2969 
Q 1341 3281 1617 3432 
Q 1894 3584 2278 3584 
Q 2916 3584 3314 3078 
Q 3713 2572 3713 1747 
Q 3713 922 3314 415 
Q 2916 -91 2278 -91 
Q 1894 -91 1617 61 
Q 1341 213 1159 525 
L 1159 0 
L 581 0 
L 581 4863 
L 1159 4863 
L 1159 2969 
z
" transform="scale(0.015625)"/>
      <path id="DejaVuSans-79" d="M 2059 -325 
Q 1816 -950 1584 -1140 
Q 1353 -1331 966 -1331 
L 506 -1331 
L 506 -850 
L 844 -850 
Q 1081 -850 1212 -737 
Q 1344 -625 1503 -206 
L 1606 56 
L 191 3500 
L 800 3500 
L 1894 763 
L 2988 3500 
L 3597 3500 
L 2059 -325 
z
" transform="scale(0.015625)"/>
      <path id="DejaVuSans-42" d="M 1259 2228 
L 1259 519 
L 2272 519 
Q 2781 519 3026 730 
Q 3272 941 3272 1375 
Q 3272 1813 3026 2020 
Q 2781 2228 2272 2228 
L 1259 2228 
z
M 1259 4147 
L 1259 2741 
L 2194 2741 
Q 2656 2741 2882 2914 
Q 3109 3088 3109 3444 
Q 3109 3797 2882 3972 
Q 2656 4147 2194 4147 
L 1259 4147 
z
M 628 4666 
L 2241 4666 
Q 2963 4666 3353 4366 
Q 3744 4066 3744 3513 
Q 3744 3084 3544 2831 
Q 3344 2578 2956 2516 
Q 3422 2416 3680 2098 
Q 3938 1781 3938 1306 
Q 3938 681 3513 340 
Q 3088 0 2303 0 
L 628 0 
L 628 4666 
z
" transform="scale(0.015625)"/>
     </defs>
     <use xlink:href="#DejaVuSans-41"/>
     <use xlink:href="#DejaVuSans-67" transform="translate(68.408203 0)"/>
     <use xlink:href="#DejaVuSans-72" transform="translate(131.884766 0)"/>
     <use xlink:href="#DejaVuSans-65" transform="translate(170.748047 0)"/>
     <use xlink:href="#DejaVuSans-65" transform="translate(232.271484 0)"/>
     <use xlink:href="#DejaVuSans-6d" transform="translate(293.794922 0)"/>
     <use xlink:href="#DejaVuSans-65" transform="translate(391.207031 0)"/>
     <use xlink:href="#DejaVuSans-6e" transform="translate(452.730469 0)"/>
     <use xlink:href="#DejaVuSans-74" transform="translate(516.109375 0)"/>
     <use xlink:href="#DejaVuSans-20" transform="translate(555.318359 0)"/>
     <use xlink:href="#DejaVuSans-53" transform="translate(587.105469 0)"/>
     <use xlink:href="#DejaVuSans-75" transform="translate(650.582031 0)"/>
     <use xlink:href="#DejaVuSans-72" transform="translate(713.960938 0)"/>
     <use xlink:href="#DejaVuSans-70" transform="translate(755.074219 0)"/>
     <use xlink:href="#DejaVuSans-6c" transform="translate(818.550781 0)"/>
     <use xlink:href="#DejaVuSans-75" transform="translate(846.333984 0)"/>
     <use xlink:href="#DejaVuSans-73" transform="translate(909.712891 0)"/>
     <use xlink:href="#DejaVuSans-20" transform="translate(961.8125 0)"/>
     <use xlink:href="#DejaVuSans-62" transform="translate(993.599609 0)"/>
     <use xlink:href="#DejaVuSans-79" transform="translate(1057.076172 0)"/>
     <use xlink:href="#DejaVuSans-20" transform="translate(1116.255859 0)"/>
     <use xlink:href="#DejaVuSans-44" transform="translate(1148.042969 0)"/>
     <use xlink:href="#DejaVuSans-69" transform="translate(1225.044922 0)"/>
     <use xlink:href="#DejaVuSans-73" transform="translate(1252.828125 0)"/>
     <use xlink:href="#DejaVuSans-61" transform="translate(1304.927734 0)"/>
     <use xlink:href="#DejaVuSans-67" transform="translate(1366.207031 0)"/>
     <use xlink:href="#DejaVuSans-72" transform="translate(1429.683594 0)"/>
     <use xlink:href="#DejaVuSans-65" transform="translate(1468.546875 0)"/>
     <use xlink:href="#DejaVuSans-65" transform="translate(1530.070312 0)"/>
     <use xlink:href="#DejaVuSans-6d" transform="translate(1591.59375 0)"/>
     <use xlink:href="#DejaVuSans-65" transform="translate(1689.005859 0)"/>
     <use xlink:href="#DejaVuSans-6e" transform="translate(1750.529297 0)"/>
     <use xlink:href="#DejaVuSans-74" transform="translate(1813.908203 0)"/>
     <use xlink:href="#DejaVuSans-20" transform="translate(1853.117188 0)"/>
     <use xlink:href="#DejaVuSans-42" transform="translate(1884.904297 0)"/>
     <use xlink:href="#DejaVuSans-69" transform="translate(1953.507812 0)"/>
     <use xlink:href="#DejaVuSans-6e" transform="translate(1981.291016 0)"/>
    </g>
   </g>
   <g id="LineCollection_1">
    <path d="M 104.340834 225.766765 
L 104.340834 201.780467 
" clip-path="url(#pb9727aaf2b)" style="fill: none; stroke: #151515; stroke-width: 1.2"/>
   </g>
   <g id="line2d_19">
    <defs>
     <path id="m3b59aa883c" d="M 4 0 
L -4 -0 
" style="stroke: #151515; stroke-width: 1.2"/>
    </defs>
    <g clip-path="url(#pb9727aaf2b)">
     <use xlink:href="#m3b59aa883c" x="104.340834" y="225.766765" style="fill: #1f77b4; stroke: #151515; stroke-width: 1.2"/>
    </g>
   </g>
   <g id="line2d_20">
    <g clip-path="url(#pb9727aaf2b)">
     <use xlink:href="#m3b59aa883c" x="104.340834" y="201.780467" style="fill: #1f77b4; stroke: #151515; stroke-width: 1.2"/>
    </g>
   </g>
   <g id="LineCollection_2">
    <path d="M 313.66 120.191495 
L 313.66 110.440947 
" clip-path="url(#pb9727aaf2b)" style="fill: none; stroke: #151515; stroke-width: 1.2"/>
   </g>
   <g id="line2d_21">
    <g clip-path="url(#pb9727aaf2b)">
     <use xlink:href="#m3b59aa883c" x="313.66" y="120.191495" style="fill: #1f77b4; stroke: #151515; stroke-width: 1.2"/>
    </g>
   </g>
   <g id="line2d_22">
    <g clip-path="url(#pb9727aaf2b)">
     <use xlink:href="#m3b59aa883c" x="313.66" y="110.440947" style="fill: #1f77b4; stroke: #151515; stroke-width: 1.2"/>
    </g>
   </g>
   <g id="LineCollection_3">
    <path d="M 418.319583 87.801613 
L 418.319583 79.473014 
" clip-path="url(#pb9727aaf2b)" style="fill: none; stroke: #151515; stroke-width: 1.2"/>
   </g>
   <g id="line2d_23">
    <g clip-path="url(#pb9727aaf2b)">
     <use xlink:href="#m3b59aa883c" x="418.319583" y="87.801613" style="fill: #1f77b4; stroke: #151515; stroke-width: 1.2"/>
    </g>
   </g>
   <g id="line2d_24">
    <g clip-path="url(#pb9727aaf2b)">
     <use xlink:href="#m3b59aa883c" x="418.319583" y="79.473014" style="fill: #1f77b4; stroke: #151515; stroke-width: 1.2"/>
    </g>
   </g>
   <g id="LineCollection_4">
    <path d="M 522.979166 106.159026 
L 522.979166 99.177036 
" clip-path="url(#pb9727aaf2b)" style="fill: none; stroke: #151515; stroke-width: 1.2"/>
   </g>
   <g id="line2d_25">
    <g clip-path="url(#pb9727aaf2b)">
     <use xlink:href="#m3b59aa883c" x="522.979166" y="106.159026" style="fill: #1f77b4; stroke: #151515; stroke-width: 1.2"/>
    </g>
   </g>
   <g id="line2d_26">
    <g clip-path="url(#pb9727aaf2b)">
     <use xlink:href="#m3b59aa883c" x="522.979166" y="99.177036" style="fill: #1f77b4; stroke: #151515; stroke-width: 1.2"/>
    </g>
   </g>
   <g id="legend_1">
    <g id="PathCollection_6">
     <g>
      <use xlink:href="#m7dce26270d" x="61.02" y="36.661406" style="fill: #1f77b4; fill-opacity: 0.82; stroke: #1f77b4; stroke-opacity: 0.82"/>
     </g>
    </g>
    <g id="text_14">
     <!-- claude-sonnet-4-6 -->
     <g transform="translate(73.62 38.498906) scale(0.07 -0.07)">
      <defs>
       <path id="DejaVuSans-63" d="M 3122 3366 
L 3122 2828 
Q 2878 2963 2633 3030 
Q 2388 3097 2138 3097 
Q 1578 3097 1268 2742 
Q 959 2388 959 1747 
Q 959 1106 1268 751 
Q 1578 397 2138 397 
Q 2388 397 2633 464 
Q 2878 531 3122 666 
L 3122 134 
Q 2881 22 2623 -34 
Q 2366 -91 2075 -91 
Q 1284 -91 818 406 
Q 353 903 353 1747 
Q 353 2603 823 3093 
Q 1294 3584 2113 3584 
Q 2378 3584 2631 3529 
Q 2884 3475 3122 3366 
z
" transform="scale(0.015625)"/>
       <path id="DejaVuSans-2d" d="M 313 2009 
L 1997 2009 
L 1997 1497 
L 313 1497 
L 313 2009 
z
" transform="scale(0.015625)"/>
       <path id="DejaVuSans-36" d="M 2113 2584 
Q 1688 2584 1439 2293 
Q 1191 2003 1191 1497 
Q 1191 994 1439 701 
Q 1688 409 2113 409 
Q 2538 409 2786 701 
Q 3034 994 3034 1497 
Q 3034 2003 2786 2293 
Q 2538 2584 2113 2584 
z
M 3366 4563 
L 3366 3988 
Q 3128 4100 2886 4159 
Q 2644 4219 2406 4219 
Q 1781 4219 1451 3797 
Q 1122 3375 1075 2522 
Q 1259 2794 1537 2939 
Q 1816 3084 2150 3084 
Q 2853 3084 3261 2657 
Q 3669 2231 3669 1497 
Q 3669 778 3244 343 
Q 2819 -91 2113 -91 
Q 1303 -91 875 529 
Q 447 1150 447 2328 
Q 447 3434 972 4092 
Q 1497 4750 2381 4750 
Q 2619 4750 2861 4703 
Q 3103 4656 3366 4563 
z
" transform="scale(0.015625)"/>
      </defs>
      <use xlink:href="#DejaVuSans-63"/>
      <use xlink:href="#DejaVuSans-6c" transform="translate(54.980469 0)"/>
      <use xlink:href="#DejaVuSans-61" transform="translate(82.763672 0)"/>
      <use xlink:href="#DejaVuSans-75" transform="translate(144.042969 0)"/>
      <use xlink:href="#DejaVuSans-64" transform="translate(207.421875 0)"/>
      <use xlink:href="#DejaVuSans-65" transform="translate(270.898438 0)"/>
      <use xlink:href="#DejaVuSans-2d" transform="translate(332.421875 0)"/>
      <use xlink:href="#DejaVuSans-73" transform="translate(368.505859 0)"/>
      <use xlink:href="#DejaVuSans-6f" transform="translate(420.605469 0)"/>
      <use xlink:href="#DejaVuSans-6e" transform="translate(481.787109 0)"/>
      <use xlink:href="#DejaVuSans-6e" transform="translate(545.166016 0)"/>
      <use xlink:href="#DejaVuSans-65" transform="translate(608.544922 0)"/>
      <use xlink:href="#DejaVuSans-74" transform="translate(670.068359 0)"/>
      <use xlink:href="#DejaVuSans-2d" transform="translate(709.277344 0)"/>
      <use xlink:href="#DejaVuSans-34" transform="translate(745.361328 0)"/>
      <use xlink:href="#DejaVuSans-2d" transform="translate(808.984375 0)"/>
      <use xlink:href="#DejaVuSans-36" transform="translate(845.068359 0)"/>
     </g>
    </g>
    <g id="PathCollection_7">
     <g>
      <use xlink:href="#mfae4caf7c1" x="61.02" y="46.936094" style="fill: #ff7f0e; fill-opacity: 0.82; stroke: #ff7f0e; stroke-opacity: 0.82"/>
     </g>
    </g>
    <g id="text_15">
     <!-- deepseek/deepseek-v3.2 -->
     <g transform="translate(73.62 48.773594) scale(0.07 -0.07)">
      <defs>
       <path id="DejaVuSans-6b" d="M 581 4863 
L 1159 4863 
L 1159 1991 
L 2875 3500 
L 3609 3500 
L 1753 1863 
L 3688 0 
L 2938 0 
L 1159 1709 
L 1159 0 
L 581 0 
L 581 4863 
z
" transform="scale(0.015625)"/>
       <path id="DejaVuSans-2f" d="M 1625 4666 
L 2156 4666 
L 531 -594 
L 0 -594 
L 1625 4666 
z
" transform="scale(0.015625)"/>
       <path id="DejaVuSans-76" d="M 191 3500 
L 800 3500 
L 1894 563 
L 2988 3500 
L 3597 3500 
L 2284 0 
L 1503 0 
L 191 3500 
z
" transform="scale(0.015625)"/>
      </defs>
      <use xlink:href="#DejaVuSans-64"/>
      <use xlink:href="#DejaVuSans-65" transform="translate(63.476562 0)"/>
      <use xlink:href="#DejaVuSans-65" transform="translate(125 0)"/>
      <use xlink:href="#DejaVuSans-70" transform="translate(186.523438 0)"/>
      <use xlink:href="#DejaVuSans-73" transform="translate(250 0)"/>
      <use xlink:href="#DejaVuSans-65" transform="translate(302.099609 0)"/>
      <use xlink:href="#DejaVuSans-65" transform="translate(363.623047 0)"/>
      <use xlink:href="#DejaVuSans-6b" transform="translate(425.146484 0)"/>
      <use xlink:href="#DejaVuSans-2f" transform="translate(483.056641 0)"/>
      <use xlink:href="#DejaVuSans-64" transform="translate(516.748047 0)"/>
      <use xlink:href="#DejaVuSans-65" transform="translate(580.224609 0)"/>
      <use xlink:href="#DejaVuSans-65" transform="translate(641.748047 0)"/>
      <use xlink:href="#DejaVuSans-70" transform="translate(703.271484 0)"/>
      <use xlink:href="#DejaVuSans-73" transform="translate(766.748047 0)"/>
      <use xlink:href="#DejaVuSans-65" transform="translate(818.847656 0)"/>
      <use xlink:href="#DejaVuSans-65" transform="translate(880.371094 0)"/>
      <use xlink:href="#DejaVuSans-6b" transform="translate(941.894531 0)"/>
      <use xlink:href="#DejaVuSans-2d" transform="translate(999.804688 0)"/>
      <use xlink:href="#DejaVuSans-76" transform="translate(1033.263672 0)"/>
      <use xlink:href="#DejaVuSans-33" transform="translate(1092.443359 0)"/>
      <use xlink:href="#DejaVuSans-2e" transform="translate(1156.066406 0)"/>
      <use xlink:href="#DejaVuSans-32" transform="translate(1187.853516 0)"/>
     </g>
    </g>
    <g id="PathCollection_8">
     <g>
      <use xlink:href="#m2f924fa8c9" x="61.02" y="57.210781" style="fill: #2ca02c; fill-opacity: 0.82; stroke: #2ca02c; stroke-opacity: 0.82"/>
     </g>
    </g>
    <g id="text_16">
     <!-- gpt-5.5 -->
     <g transform="translate(73.62 59.048281) scale(0.07 -0.07)">
      <use xlink:href="#DejaVuSans-67"/>
      <use xlink:href="#DejaVuSans-70" transform="translate(63.476562 0)"/>
      <use xlink:href="#DejaVuSans-74" transform="translate(126.953125 0)"/>
      <use xlink:href="#DejaVuSans-2d" transform="translate(166.162109 0)"/>
      <use xlink:href="#DejaVuSans-35" transform="translate(202.246094 0)"/>
      <use xlink:href="#DejaVuSans-2e" transform="translate(265.869141 0)"/>
      <use xlink:href="#DejaVuSans-35" transform="translate(297.65625 0)"/>
     </g>
    </g>
    <g id="PathCollection_9">
     <g>
      <use xlink:href="#mdeaa6e7843" x="182.228281" y="36.661406" style="fill: #d62728; fill-opacity: 0.82; stroke: #d62728; stroke-opacity: 0.82"/>
     </g>
    </g>
    <g id="text_17">
     <!-- grok-4.3 -->
     <g transform="translate(194.828281 38.498906) scale(0.07 -0.07)">
      <use xlink:href="#DejaVuSans-67"/>
      <use xlink:href="#DejaVuSans-72" transform="translate(63.476562 0)"/>
      <use xlink:href="#DejaVuSans-6f" transform="translate(102.339844 0)"/>
      <use xlink:href="#DejaVuSans-6b" transform="translate(163.521484 0)"/>
      <use xlink:href="#DejaVuSans-2d" transform="translate(221.431641 0)"/>
      <use xlink:href="#DejaVuSans-34" transform="translate(257.515625 0)"/>
      <use xlink:href="#DejaVuSans-2e" transform="translate(321.138672 0)"/>
      <use xlink:href="#DejaVuSans-33" transform="translate(352.925781 0)"/>
     </g>
    </g>
    <g id="PathCollection_10">
     <g>
      <use xlink:href="#m64c8c02c47" x="182.228281" y="46.936094" style="fill: #9467bd; fill-opacity: 0.82; stroke: #9467bd; stroke-opacity: 0.82"/>
     </g>
    </g>
    <g id="text_18">
     <!-- qwen/qwen3.7-max -->
     <g transform="translate(194.828281 48.773594) scale(0.07 -0.07)">
      <defs>
       <path id="DejaVuSans-71" d="M 947 1747 
Q 947 1113 1208 752 
Q 1469 391 1925 391 
Q 2381 391 2643 752 
Q 2906 1113 2906 1747 
Q 2906 2381 2643 2742 
Q 2381 3103 1925 3103 
Q 1469 3103 1208 2742 
Q 947 2381 947 1747 
z
M 2906 525 
Q 2725 213 2448 61 
Q 2172 -91 1784 -91 
Q 1150 -91 751 415 
Q 353 922 353 1747 
Q 353 2572 751 3078 
Q 1150 3584 1784 3584 
Q 2172 3584 2448 3432 
Q 2725 3281 2906 2969 
L 2906 3500 
L 3481 3500 
L 3481 -1331 
L 2906 -1331 
L 2906 525 
z
" transform="scale(0.015625)"/>
       <path id="DejaVuSans-37" d="M 525 4666 
L 3525 4666 
L 3525 4397 
L 1831 0 
L 1172 0 
L 2766 4134 
L 525 4134 
L 525 4666 
z
" transform="scale(0.015625)"/>
       <path id="DejaVuSans-78" d="M 3513 3500 
L 2247 1797 
L 3578 0 
L 2900 0 
L 1881 1375 
L 863 0 
L 184 0 
L 1544 1831 
L 300 3500 
L 978 3500 
L 1906 2253 
L 2834 3500 
L 3513 3500 
z
" transform="scale(0.015625)"/>
      </defs>
      <use xlink:href="#DejaVuSans-71"/>
      <use xlink:href="#DejaVuSans-77" transform="translate(63.476562 0)"/>
      <use xlink:href="#DejaVuSans-65" transform="translate(145.263672 0)"/>
      <use xlink:href="#DejaVuSans-6e" transform="translate(206.787109 0)"/>
      <use xlink:href="#DejaVuSans-2f" transform="translate(270.166016 0)"/>
      <use xlink:href="#DejaVuSans-71" transform="translate(303.857422 0)"/>
      <use xlink:href="#DejaVuSans-77" transform="translate(367.333984 0)"/>
      <use xlink:href="#DejaVuSans-65" transform="translate(449.121094 0)"/>
      <use xlink:href="#DejaVuSans-6e" transform="translate(510.644531 0)"/>
      <use xlink:href="#DejaVuSans-33" transform="translate(574.023438 0)"/>
      <use xlink:href="#DejaVuSans-2e" transform="translate(637.646484 0)"/>
      <use xlink:href="#DejaVuSans-37" transform="translate(669.433594 0)"/>
      <use xlink:href="#DejaVuSans-2d" transform="translate(733.056641 0)"/>
      <use xlink:href="#DejaVuSans-6d" transform="translate(769.140625 0)"/>
      <use xlink:href="#DejaVuSans-61" transform="translate(866.552734 0)"/>
      <use xlink:href="#DejaVuSans-78" transform="translate(927.832031 0)"/>
     </g>
    </g>
    <g id="patch_10">
     <path d="M 175.228281 59.048281 
L 189.228281 59.048281 
L 189.228281 54.148281 
L 175.228281 54.148281 
z
" style="fill: #476a6f"/>
    </g>
    <g id="text_19">
     <!-- All models -->
     <g transform="translate(194.828281 59.048281) scale(0.07 -0.07)">
      <use xlink:href="#DejaVuSans-41"/>
      <use xlink:href="#DejaVuSans-6c" transform="translate(68.408203 0)"/>
      <use xlink:href="#DejaVuSans-6c" transform="translate(96.191406 0)"/>
      <use xlink:href="#DejaVuSans-20" transform="translate(123.974609 0)"/>
      <use xlink:href="#DejaVuSans-6d" transform="translate(155.761719 0)"/>
      <use xlink:href="#DejaVuSans-6f" transform="translate(253.173828 0)"/>
      <use xlink:href="#DejaVuSans-64" transform="translate(314.355469 0)"/>
      <use xlink:href="#DejaVuSans-65" transform="translate(377.832031 0)"/>
      <use xlink:href="#DejaVuSans-6c" transform="translate(439.355469 0)"/>
      <use xlink:href="#DejaVuSans-73" transform="translate(467.138672 0)"/>
     </g>
    </g>
   </g>
  </g>
 </g>
 <defs>
  <clipPath id="pb9727aaf2b">
   <rect x="47.72" y="26.88" width="531.88" height="270.224399"/>
  </clipPath>
 </defs>
</svg>
